<svg width="24" height="24" viewBox="0 0 24 24" fill="none" xmlns="http://www.w3.org/2000/svg">
<path d="M18.6588 17.6043L21.5883 20.5338C21.7288 20.6903 21.7991 20.8661 21.7991 21.0611C21.7991 21.2561 21.7248 21.4281 21.5763 21.5771C21.4278 21.7261 21.2558 21.8003 21.0603 21.7998C20.8648 21.7993 20.6891 21.7291 20.5331 21.5891L17.6036 18.6596C15.5256 20.3626 13.2208 21.1398 10.6893 20.9913C8.15781 20.8428 5.96256 19.8076 4.10356 17.8856C2.32206 15.8701 1.45481 13.5966 1.50181 11.0651C1.54881 8.53356 2.50206 6.29906 4.36156 4.36156C6.29906 2.50206 8.53356 1.54881 11.0651 1.50181C13.5966 1.45481 15.8701 2.32206 17.8856 4.10356C19.8076 5.96306 20.8428 8.15831 20.9913 10.6893C21.1398 13.2203 20.3618 15.5258 18.6588 17.6043ZM11.2526 19.5026C13.5966 19.4401 15.5418 18.6353 17.0883 17.0883C18.6348 15.5413 19.4396 13.5961 19.5026 11.2526C19.4401 8.90856 18.6353 6.96331 17.0883 5.41681C15.5413 3.87031 13.5961 3.06556 11.2526 3.00256C8.90856 3.06506 6.96331 3.86981 5.41681 5.41681C3.87031 6.96381 3.06556 8.90906 3.00256 11.2526C3.06506 13.5966 3.86981 15.5418 5.41681 17.0883C6.96381 18.6348 8.90906 19.4396 11.2526 19.5026Z" fill="#333D4B"/>
</svg>
