<svg width="24" height="24" viewBox="0 0 24 24" fill="none" xmlns="http://www.w3.org/2000/svg">
<path d="M17.9062 5.03941L11.9999 10.9457L6.09368 5.03941C5.93718 4.89891 5.76143 4.82866 5.56643 4.82866C5.37143 4.82866 5.19943 4.90291 5.05043 5.05141C4.90143 5.19991 4.82718 5.37191 4.82768 5.56741C4.82818 5.76291 4.89843 5.93866 5.03843 6.09466L10.9447 12.0009L5.03843 17.9072C4.83543 18.1102 4.76893 18.3524 4.83893 18.6339C4.90893 18.9154 5.08093 19.0912 5.35493 19.1612C5.62893 19.2312 5.87493 19.1647 6.09293 18.9617L11.9992 13.0554L17.9054 18.9617C18.0619 19.1022 18.2377 19.1724 18.4327 19.1724C18.6277 19.1724 18.7997 19.0982 18.9487 18.9497C19.0977 18.8012 19.1719 18.6292 19.1714 18.4337C19.1709 18.2382 19.1007 18.0624 18.9607 17.9064L13.0544 12.0002L18.9607 6.09391C19.1637 5.89091 19.2302 5.64866 19.1602 5.36716C19.0902 5.08566 18.9144 4.90991 18.6329 4.83991C18.3514 4.76991 18.1092 4.83641 17.9062 5.03941V5.03941Z" fill="#333D4B"/>
</svg>
