<svg width="109" height="67" viewBox="0 0 109 67" fill="none" xmlns="http://www.w3.org/2000/svg">
<g clip-path="url(#clip0_234_3400)">
<path d="M57.91 14.36L60.99 0.0400085H55.99L53.61 12.36V0.0400085H48.27V20.57C51.44 19.47 54.88 18.2 58.39 16.8L57.91 14.36ZM66.4 13.14C66.4016 12.598 66.5719 12.0699 66.8873 11.6291C67.2027 11.1882 67.6475 10.8565 68.16 10.68V0H62.81V15C64.01 14.48 65.21 13.94 66.41 13.39C66.4001 13.3138 66.3967 13.2368 66.4 13.16V13.14ZM88.58 3.62C88.04 2.12 82.93 2.35 75.24 4.03V0.0299988H69.85V10.71C70.199 10.829 70.5192 11.0197 70.79 11.27C71.8967 10.71 72.9867 10.14 74.06 9.56C74.4085 9.38021 74.702 9.10975 74.9097 8.77713C75.1174 8.44451 75.2315 8.06205 75.24 7.67001V4.76001C81.04 3.52001 84.88 3.25999 85.24 4.23999C85.6 5.21999 83 7.01001 78.52 9.35001C76.52 10.35 74.19 11.51 71.52 12.69C71.6443 13.307 71.5378 13.9482 71.2208 14.492C70.9037 15.0357 70.3982 15.4442 69.8 15.64V26.64C69.8 27.28 69.54 27.7 68.94 27.7C68.34 27.7 68.11 27.28 68.11 26.64V15.64C67.6028 15.4698 67.162 15.1445 66.85 14.71C63.18 16.24 59.16 17.81 54.94 19.33C51.58 20.55 48.31 21.67 45.22 22.65H45.16C43.29 23.25 41.49 23.8 39.78 24.3V26.53C39.78 28.06 39.27 28.06 38.24 28.06V3.73999C39.24 3.73999 39.78 3.73999 39.78 5.26999V23.35C41.39 22.85 43.2 22.27 45.16 21.61V4.87C45.2066 4.24473 45.1211 3.61666 44.9092 3.02658C44.6972 2.4365 44.3635 1.8976 43.9297 1.44492C43.4958 0.992229 42.9716 0.635892 42.3911 0.399017C41.8106 0.162143 41.1867 0.0500378 40.56 0.0700073H32.88V19.07C24.47 23.24 19.43 26.88 20.03 28.54C20.56 30 25.47 29.86 32.88 28.33V31.76H40.6C40.6 31.76 45.16 31.95 45.16 26.76V25.16C46.16 24.86 47.16 24.55 48.21 24.21V31.74H53.55V22.43L54.2 22.21L55.71 31.74H61.21L59.03 20.44C60.3 19.96 61.55 19.44 62.76 18.98V26.98C62.76 31.15 66.28 31.91 68.98 31.91C71.68 31.91 75.19 31.14 75.19 26.91V13.46C83.95 9.15999 89.17 5.31 88.58 3.62ZM32.93 26.16C27.14 27.53 23.37 27.9 23.03 26.91C22.69 25.92 26.53 23.11 32.93 19.91V26.16Z" fill="#004898"/>
<path fill-rule="evenodd" clip-rule="evenodd" d="M104.23 43.39V54.46H102.07V45.77H98.94V54.46H96.48V45.77H93.24V54.46H90.5V56.62H108.66V54.46H107.54V43.83C107.54 42.12 106.81 41.28 104.93 41.28H91.17V43.39H104.23Z" fill="#004898"/>
<path fill-rule="evenodd" clip-rule="evenodd" d="M60.33 41.29H63.51V57.16H60.33V49.23H58.84V57.16H55.84V55.38L48.5 55.64C48.2063 55.6535 47.9128 55.6074 47.6373 55.5046C47.3619 55.4017 47.1101 55.2442 46.897 55.0414C46.684 54.8387 46.5143 54.595 46.3979 54.325C46.2815 54.0549 46.221 53.7641 46.22 53.47V41.29H53.98V43.51H49.53V53.51L55.8 53.3V41.3H58.8V46.88H60.29V41.3L60.33 41.29Z" fill="#004898"/>
<path fill-rule="evenodd" clip-rule="evenodd" d="M23.56 41.29V43.51H37.17V47.16H22.96V49.16H29.96V51.72H23.39V53.79H37.25V57.35H40.7V53.35C40.7175 53.131 40.6878 52.9108 40.6132 52.7042C40.5385 52.4976 40.4205 52.3093 40.267 52.1521C40.1136 51.9949 39.9282 51.8723 39.7235 51.7926C39.5188 51.7129 39.2994 51.6779 39.08 51.69H33.72V49.13H41.53V47.13H40.46V43.88C40.4991 43.5383 40.4639 43.1921 40.3569 42.8652C40.25 42.5383 40.0737 42.2383 39.8401 41.9858C39.6066 41.7332 39.3213 41.5341 39.0037 41.4019C38.6861 41.2698 38.3438 41.2077 38 41.22L23.56 41.29Z" fill="#004898"/>
<path fill-rule="evenodd" clip-rule="evenodd" d="M69.03 51.8V53.95H82.39V57.16H85.75V53.76C85.7777 53.4862 85.7433 53.2096 85.6494 52.9509C85.5554 52.6921 85.4043 52.4579 85.2072 52.2657C85.0102 52.0735 84.7724 51.9282 84.5114 51.8407C84.2504 51.7531 83.9731 51.7255 83.7 51.76L69.03 51.8Z" fill="#004898"/>
<path fill-rule="evenodd" clip-rule="evenodd" d="M82.28 41.29V50.98H85.63V47.36H88.06V45.21H85.63V41.29H82.28Z" fill="#004898"/>
<path fill-rule="evenodd" clip-rule="evenodd" d="M78.27 43.75H81V41.75H76.61V40.62H72.97V41.74H68.17V43.74H70.72C69.17 44.48 68.15 45.65 68.15 46.99C68.15 49.21 70.98 50.99 74.46 50.99C77.94 50.99 80.78 49.18 80.78 46.99C80.84 45.66 79.83 44.49 78.27 43.75ZM74.52 49.07C72.88 49.07 71.52 48.07 71.52 46.88C71.52 45.69 72.85 44.69 74.52 44.69C76.19 44.69 77.52 45.69 77.52 46.88C77.52 48.07 76.17 49.07 74.52 49.07V49.07Z" fill="#004898"/>
<path fill-rule="evenodd" clip-rule="evenodd" d="M11.03 43.51V41.29H0.030002V48.16C0.0159503 48.4098 0.0541267 48.6598 0.142093 48.894C0.23006 49.1282 0.36588 49.3415 0.540897 49.5203C0.715914 49.6991 0.926285 49.8394 1.15857 49.9323C1.39086 50.0253 1.63997 50.0688 1.89 50.06L14.6 49.59V47.42L3.34 47.9V43.48L11.03 43.51Z" fill="#004898"/>
<path d="M11.9 55H4.37V51.59H0.860001V54.93C0.860001 56.59 1.58999 57.15 2.53999 57.16H17.27V55H11.9Z" fill="#004898"/>
<path d="M19.81 48.62V46.4H17.27V41.29H13.94V52.72H17.27V48.62H19.81Z" fill="#004898"/>
<path d="M0.860001 60.2699H3.39999C3.78849 60.268 4.16969 60.3754 4.5 60.58C4.66559 60.6856 4.79891 60.8348 4.88535 61.0112C4.97178 61.1876 5.00799 61.3843 4.99001 61.58V65.58C4.99946 65.7617 4.96322 65.943 4.88461 66.1072C4.80601 66.2714 4.68753 66.4133 4.53999 66.5199C4.21428 66.7535 3.82058 66.873 3.42 66.86H0.860001V60.2699ZM3.45 61.4499C3.44837 61.368 3.41629 61.2896 3.36 61.2299C3.28879 61.1685 3.20251 61.1271 3.11 61.11H2.39V65.9599H3.09999C3.19164 65.9462 3.27795 65.9082 3.34999 65.8499C3.38203 65.8231 3.40765 65.7893 3.42496 65.7513C3.44226 65.7132 3.45082 65.6717 3.45 65.6299V61.4499Z" fill="#004898"/>
<path d="M8.72 66.8H7.17L8.66 60.27H10.56L12.05 66.8H10.53L9.61 62.2L8.72 66.8ZM8.92 65.03V64.16H10.52V65.06L8.92 65.03Z" fill="#004898"/>
<path d="M17.27 66.79L15.6 62.94V66.79H14.33V60.26H16.06L17.57 64.16V60.26H18.84V66.79H17.27Z" fill="#004898"/>
<path d="M23.77 66.8L22.65 64.36V66.8H21.17V60.27H22.69V62.45L23.87 60.27H25.4L23.83 63.27L25.58 66.82L23.77 66.8Z" fill="#004898"/>
<path d="M27.7 61.51C27.7004 61.3382 27.7413 61.169 27.8195 61.0161C27.8977 60.8631 28.011 60.7309 28.15 60.63C28.4868 60.3901 28.8867 60.2545 29.3 60.24H30.17C30.5913 60.2435 31.0008 60.38 31.34 60.63C31.4852 60.7231 31.6038 60.852 31.6844 61.0045C31.765 61.1569 31.8048 61.3276 31.8 61.5V65.64C31.8025 65.8081 31.7626 65.9741 31.6839 66.1227C31.6052 66.2712 31.4904 66.3976 31.35 66.49C30.9954 66.7085 30.5865 66.8229 30.17 66.82H29.3C28.8877 66.8182 28.486 66.6889 28.15 66.45C28.0147 66.3634 27.9023 66.2455 27.8222 66.1062C27.7421 65.967 27.6968 65.8105 27.69 65.65L27.7 61.51ZM30.32 61.34C30.3199 61.295 30.3019 61.2518 30.27 61.22C30.2416 61.1927 30.2074 61.1722 30.17 61.16H29.39C29.3419 61.1674 29.2969 61.1882 29.26 61.22C29.2311 61.2537 29.2135 61.2957 29.21 61.34V65.72C29.2135 65.7613 29.2312 65.8002 29.26 65.83C29.2922 65.8647 29.334 65.889 29.38 65.9H29.58H29.99H30.18C30.229 65.8892 30.274 65.865 30.31 65.83C30.3388 65.8002 30.3565 65.7613 30.36 65.72L30.32 61.34Z" fill="#004898"/>
<path d="M34.09 61.51C34.0923 61.3375 34.1351 61.168 34.2151 61.0151C34.295 60.8623 34.4097 60.7303 34.55 60.63C34.8868 60.3901 35.2867 60.2545 35.7 60.24H36.57C36.9913 60.2435 37.4008 60.38 37.74 60.63C37.887 60.7218 38.0077 60.8503 38.0901 61.0028C38.1725 61.1554 38.2138 61.3267 38.21 61.5V65.64C38.2114 65.809 38.17 65.9756 38.0895 66.1243C38.0091 66.2729 37.8923 66.3987 37.75 66.49C37.3965 66.7111 36.9869 66.8256 36.57 66.82H35.71C35.2977 66.8182 34.896 66.6889 34.56 66.45C34.4228 66.3646 34.3084 66.2471 34.2266 66.1078C34.1447 65.9685 34.0979 65.8114 34.09 65.65V61.51ZM36.71 61.34C36.7256 61.3015 36.7256 61.2585 36.71 61.22C36.6693 61.1883 36.621 61.1676 36.57 61.16H35.78C35.7349 61.1676 35.6932 61.1885 35.66 61.22C35.6483 61.2591 35.6483 61.3008 35.66 61.34V65.72C35.6485 65.7558 35.6485 65.7942 35.66 65.83C35.6922 65.8647 35.734 65.889 35.78 65.9H35.98H36.38H36.58C36.6281 65.8868 36.6725 65.8629 36.71 65.83C36.7222 65.7944 36.7222 65.7557 36.71 65.72V61.34Z" fill="#004898"/>
<path d="M43.17 66.8L42.05 64.36V66.8H40.53V60.27H42.05V62.45L43.24 60.27H44.77L43.19 63.27L44.95 66.82L43.17 66.8Z" fill="#004898"/>
<path d="M52.09 60.27V65.76C52.0901 65.8051 52.1081 65.8482 52.14 65.88C52.1807 65.9117 52.2289 65.9324 52.28 65.94H53.05C53.0974 65.9305 53.1419 65.9099 53.18 65.88C53.2119 65.8482 53.2299 65.8051 53.23 65.76V60.27H54.75V65.68C54.7514 65.849 54.7099 66.0157 54.6295 66.1643C54.5491 66.313 54.4322 66.4388 54.29 66.53C53.9244 66.7475 53.5053 66.8583 53.08 66.85H52.25C51.8391 66.8491 51.4345 66.7496 51.07 66.56C50.9103 66.4794 50.7773 66.3545 50.6868 66.2002C50.5964 66.0459 50.5523 65.8687 50.56 65.69V60.27H52.09Z" fill="#004898"/>
<path d="M59.99 66.79L58.32 62.94V66.79H57.04V60.26H58.78L60.28 64.2V60.26H61.55V66.79H59.99Z" fill="#004898"/>
<path d="M63.88 66.79V60.27H65.41V66.79H63.88Z" fill="#004898"/>
<path d="M71.04 66.8H68.89L67.63 60.27H69.11L69.97 64.59L70.81 60.27H72.3L71.04 66.8Z" fill="#004898"/>
<path d="M74.47 66.79V60.27H78.06V61.1H75.99V62.87H77.93V63.65H75.99V65.96H78.08V66.79H74.47Z" fill="#004898"/>
<path d="M82.94 66.81C82.94 66.7 82.94 66.58 82.94 66.44C82.94 66.3 82.94 66.05 82.94 65.68V65.28C82.94 65.05 82.94 64.78 82.94 64.47V63.99C82.9402 63.9462 82.9292 63.9031 82.9082 63.8646C82.8873 63.8261 82.8569 63.7936 82.82 63.77C82.7347 63.7015 82.6293 63.6629 82.52 63.66H81.82V66.8H80.3V60.27H82.82C83.209 60.2634 83.5937 60.3527 83.94 60.53C84.095 60.6085 84.2232 60.7311 84.3087 60.8824C84.3941 61.0336 84.4328 61.2068 84.42 61.38V62.22C84.4125 62.4507 84.3157 62.6694 84.15 62.83C83.9652 63.0265 83.73 63.1683 83.47 63.24C83.7331 63.2924 83.9719 63.4293 84.15 63.63C84.3227 63.8144 84.4191 64.0574 84.42 64.31V66.41C84.391 66.5418 84.391 66.6782 84.42 66.81H82.94ZM82.94 61.45C82.9392 61.405 82.928 61.3608 82.9072 61.3208C82.8863 61.2809 82.8565 61.2464 82.82 61.22C82.7356 61.1485 82.6304 61.1064 82.52 61.1H81.82V62.88H82.52C82.6294 62.8692 82.7334 62.8276 82.82 62.76C82.8571 62.7342 82.8874 62.6998 82.9082 62.6597C82.9291 62.6197 82.94 62.5752 82.94 62.53V61.45Z" fill="#004898"/>
<path d="M88.08 64.3301V65.6401C88.0792 65.6664 88.0841 65.6925 88.0945 65.7167C88.1048 65.7409 88.1204 65.7625 88.14 65.78C88.1816 65.8202 88.2335 65.8479 88.29 65.8601H89.08C89.1365 65.8479 89.1884 65.8202 89.23 65.78C89.246 65.7347 89.246 65.6854 89.23 65.6401V65.16C89.23 64.99 89.11 64.8201 88.86 64.6401C88.61 64.4601 88.42 64.3001 88.27 64.1701C87.6033 63.5767 87.1733 63.1667 86.98 62.94C86.7866 62.7612 86.6716 62.5132 86.66 62.25V61.5401C86.6602 61.3647 86.7031 61.192 86.785 61.0369C86.8669 60.8819 86.9853 60.7491 87.13 60.65C87.4815 60.4031 87.9005 60.2704 88.33 60.27H89.17C89.5635 60.2635 89.9488 60.3826 90.27 60.6101C90.4029 60.6999 90.5123 60.8203 90.5889 60.9613C90.6655 61.1023 90.707 61.2596 90.71 61.4201V62.65H89.27V61.41C89.2803 61.364 89.2803 61.3161 89.27 61.27C89.2616 61.2459 89.2484 61.2237 89.2312 61.2048C89.214 61.1859 89.1932 61.1707 89.17 61.16H88.37C88.32 61.1791 88.2754 61.21 88.24 61.25C88.2201 61.3118 88.2201 61.3783 88.24 61.44V62.0501C88.2423 62.1386 88.2652 62.2253 88.3069 62.3034C88.3485 62.3815 88.4078 62.4488 88.48 62.5L88.94 62.8901C89.57 63.4601 90.06 63.89 90.39 64.15C90.5301 64.2437 90.647 64.368 90.7319 64.5135C90.8168 64.6591 90.8674 64.822 90.88 64.99V65.5501C90.8778 65.7275 90.833 65.9019 90.7495 66.0585C90.666 66.2151 90.5461 66.3493 90.4 66.4501C90.0473 66.7031 89.6241 66.8395 89.19 66.84H88.39C87.9788 66.8411 87.5772 66.7154 87.24 66.4801C87.102 66.3916 86.9878 66.2705 86.9076 66.1275C86.8274 65.9845 86.7836 65.824 86.78 65.66V64.34L88.08 64.3301Z" fill="#004898"/>
<path d="M93.17 66.79V60.27H94.69V66.79H93.17Z" fill="#004898"/>
<path d="M99.6 61.1599V66.8399H98.08V61.1599H96.94V60.3199H100.73V61.1599H99.6Z" fill="#004898"/>
<path d="M106.56 62.98L105.97 64.47V66.8H104.44V64.51C104.41 64.297 104.353 64.0887 104.27 63.89C104.16 63.57 104.05 63.27 103.96 62.99C103.87 62.71 103.71 62.36 103.47 61.83C103.24 61.3209 103.036 60.8002 102.86 60.27H104.31L105.31 62.85L106.42 60.27H107.78L106.56 62.98Z" fill="#004898"/>
</g>
<defs>
<clipPath id="clip0_234_3400">
<rect width="108.66" height="66.85" fill="white"/>
</clipPath>
</defs>
</svg>
